# xmcd CD database file
#
# Track frame offsets:
#	150
#	20595
#	40103
#	68315
#	93497
#	118649
#	145925
#	176360
#	210517
#	230514
#	246108
#	269045
#	293606
#	328395
#
# Disc length: 4700 seconds
#
# Revision: 1
# Processed by: cddbd v1.5.2PL0 Copyright (c) Steve Scherf et al.
# Submitted via: CDex 1.50
#
DISCID=c8125a0e
DTITLE=P. C. Cast - 01 - Moon Chosen CD02
DYEAR=2017
DGENRE=Hörbuch
TTITLE0=Gefährten einer neuen Welt [CD 2)
TTITLE1=Gefährten einer neuen Welt [CD 2)
TTITLE2=Gefährten einer neuen Welt [CD 2)
TTITLE3=Gefährten einer neuen Welt [CD 2)
TTITLE4=Gefährten einer neuen Welt [CD 2)
TTITLE5=Gefährten einer neuen Welt [CD 2)
TTITLE6=Gefährten einer neuen Welt [CD 2)
TTITLE7=Gefährten einer neuen Welt [CD 2)
TTITLE8=Gefährten einer neuen Welt [CD 2)
TTITLE9=Gefährten einer neuen Welt [CD 2)
TTITLE10=Gefährten einer neuen Welt [CD 2)
TTITLE11=Gefährten einer neuen Welt [CD 2)
TTITLE12=Gefährten einer neuen Welt [CD 2)
TTITLE13=Gefährten einer neuen Welt [CD 2)
EXTD=YEAR: 2017
EXTT0=
EXTT1=
EXTT2=
EXTT3=
EXTT4=
EXTT5=
EXTT6=
EXTT7=
EXTT8=
EXTT9=
EXTT10=
EXTT11=
EXTT12=
EXTT13=
PLAYORDER=
